<svg width="56" height="55" viewBox="0 0 56 55" fill="none" xmlns="http://www.w3.org/2000/svg">
<g id="dining-icon 1">
<path id="Vector" d="M31.1945 8.13301C31.102 8.13867 31.011 8.16348 30.9259 8.20628C30.839 8.24984 30.7588 8.30997 30.6887 8.38422L30.5947 8.53076C31.871 9.16105 33.0814 9.96001 34.2023 10.9121C35.1495 11.6676 36.0637 12.4781 36.9416 13.3404L36.2612 13.7905C35.5451 13.0997 34.6678 12.3304 33.786 11.6238C32.2732 10.4096 30.7782 9.38384 30.1426 9.253L25.9398 15.9834C25.8637 16.0878 25.8076 16.21 25.7752 16.3417C25.7428 16.4735 25.7348 16.6119 25.7518 16.7475C25.836 17.0567 26.0102 17.3215 26.2441 17.4959L29.5921 20.254C29.431 20.4739 29.2698 20.6937 29.1132 20.924C28.0076 20.0081 26.9066 19.087 25.801 18.1815C25.4246 17.8859 25.1514 17.442 25.0312 16.9307C24.9934 16.6822 25.0014 16.4272 25.0547 16.1826C25.1079 15.938 25.2052 15.7095 25.34 15.5124L30.0934 7.85039L30.1516 7.77189C30.2848 7.62928 30.4357 7.51105 30.5992 7.42124C30.7653 7.33761 30.9424 7.28804 31.1229 7.2747C31.7343 7.33154 32.3274 7.54602 32.8595 7.90273C33.7246 8.41134 34.5564 8.99385 35.3481 9.64552L35.4645 9.73973C36.4959 10.5225 37.4272 11.4722 38.2306 12.5606C38.0113 12.681 37.783 12.8119 37.5727 12.9375C36.828 11.9821 35.9862 11.1367 35.0661 10.4201L34.9543 10.3259C34.1953 9.70139 33.3979 9.14336 32.5686 8.65637C32.1457 8.37453 31.6782 8.19645 31.1945 8.13301ZM52.567 53.7596L44.8639 41.3455C39.1168 41.9212 34.0277 30.1717 38.1501 26.8641C43.181 22.8447 50.9422 34.3272 47.4376 39.1578L55.4942 51.4411C57.1458 53.9637 54.3349 56.6276 52.5625 53.7596H52.567ZM13.9264 37.1586C15.5243 37.5093 16.8447 37.0749 18.7022 34.7197L23.6794 28.9C24.3687 28.0731 23.1871 26.503 22.3367 27.3299L18.2502 31.993C18.1786 32.0907 18.0906 32.1701 17.9916 32.2263C17.8926 32.2825 17.7848 32.3142 17.6749 32.3196C17.565 32.3249 17.4553 32.3037 17.3527 32.2573C17.2501 32.2109 17.1568 32.1403 17.0785 32.0499C17.0003 31.9595 16.9388 31.8512 16.8979 31.7318C16.857 31.6124 16.8376 31.4844 16.8409 31.3558C16.8441 31.2272 16.87 31.1008 16.9169 30.9845C16.9637 30.8681 17.0306 30.7642 17.1133 30.6794L21.3385 25.8488C22.0681 24.9591 20.9446 23.4623 20.1077 24.4043C18.9439 25.7598 17.0417 27.8794 15.8824 29.2349C15.8259 29.3376 15.7504 29.4241 15.6616 29.4881C15.5727 29.5521 15.4727 29.5921 15.3688 29.6049C15.265 29.6178 15.1601 29.6033 15.0617 29.5624C14.9633 29.5216 14.874 29.4555 14.8004 29.369C14.7267 29.2825 14.6706 29.1778 14.6362 29.0625C14.6017 28.9473 14.5898 28.8245 14.6013 28.7032C14.6127 28.5819 14.6473 28.4651 14.7025 28.3615C14.7577 28.2579 14.832 28.1701 14.9201 28.1045L19.1185 23.3052C19.2321 23.1545 19.309 22.9707 19.341 22.7732C19.373 22.5758 19.3589 22.3719 19.3003 22.1829C19.2417 21.994 19.1408 21.827 19.008 21.6994C18.8752 21.5718 18.7154 21.4883 18.5456 21.4578C17.8115 21.2641 17.3281 22.0439 16.8268 22.5935L11.9033 27.9789C10.5605 29.6274 9.7862 31.3702 10.386 33.2125C10.5122 33.5585 10.6762 33.8839 10.8738 34.1807L1.54157 44.224C1.37402 44.4073 1.23957 44.6281 1.14616 44.8732C1.05274 45.1183 1.00225 45.3828 0.997658 45.6511C0.993069 45.9194 1.03448 46.186 1.11944 46.4353C1.2044 46.6846 1.33119 46.9114 1.49234 47.1025L1.64004 47.2752C1.82391 47.4855 2.04182 47.6509 2.28102 47.7615C2.52022 47.8722 2.7759 47.9259 3.03309 47.9196C3.29027 47.9133 3.54379 47.847 3.77879 47.7246C4.01379 47.6023 4.22556 47.4264 4.40168 47.2071L12.9059 36.5253C13.2072 36.8128 13.554 37.028 13.9264 37.1586ZM27.0453 30.8312C27.5843 31.2024 28.0445 31.7115 28.3913 32.3202C28.7381 32.929 28.9626 33.6217 29.0478 34.3463C29.1331 35.0709 29.077 35.8087 28.8837 36.5044C28.6905 37.2001 28.365 37.8356 27.9318 38.3632C27.4986 38.8909 26.9688 39.297 26.3822 39.5512C25.7957 39.8054 25.1675 39.9011 24.5448 39.831C23.9221 39.7609 23.3211 39.527 22.7867 39.1466C22.2524 38.7663 21.7986 38.2495 21.4594 37.6349L26.3068 31.9669C26.4368 31.8158 26.5565 31.6531 26.6649 31.4801C26.8072 31.2769 26.9345 31.0598 27.0453 30.8312ZM17.5609 15.3135C17.489 15.4717 17.368 15.5917 17.2229 15.6489C17.0777 15.7061 16.9193 15.6962 16.7802 15.6212C16.6411 15.5463 16.5318 15.4119 16.4747 15.2457C16.4176 15.0795 16.4171 14.894 16.4732 14.7274C17.1805 12.9089 18.2447 11.3112 19.5795 10.0642C20.8367 8.8834 22.3485 8.13175 23.948 7.89226C24.1053 7.87144 24.2632 7.92453 24.387 8.03986C24.5108 8.15518 24.5904 8.3233 24.6082 8.50721C24.626 8.69113 24.5806 8.87578 24.482 9.02055C24.3833 9.16532 24.2396 9.25835 24.0823 9.27917C22.7013 9.48471 21.3965 10.1352 20.3135 11.158C19.1294 12.2709 18.1863 13.6946 17.5609 15.3135ZM28.5268 -2.11159e-05C31.1506 -0.00208545 33.749 0.600668 36.1734 1.77377C38.5978 2.94686 40.8006 4.66729 42.6559 6.83666C44.5112 9.00602 45.9826 11.5818 46.9858 14.4166C47.9891 17.2514 48.5046 20.2896 48.5028 23.3576C48.502 24.3198 48.4512 25.2811 48.3507 26.2361C47.7256 25.4377 47.0344 24.7136 46.2873 24.0746C46.2873 23.8286 46.2873 23.5826 46.2873 23.3366C46.2873 17.8261 44.4151 12.5413 41.0827 8.64478C37.7503 4.74826 33.2306 2.55921 28.5179 2.55921C23.8052 2.55921 19.2855 4.74826 15.953 8.64478C12.6206 12.5413 10.7485 17.8261 10.7485 23.3366L9.36994 24.8387C9.32518 24.891 9.27595 24.9434 9.23119 25.0009C9.02977 25.2469 8.83731 25.5243 8.64932 25.7493C8.58218 24.9643 8.54637 24.1793 8.54637 23.368C8.54343 20.2988 9.0582 17.259 10.0612 14.4226C11.0642 11.5863 12.5358 9.00905 14.3917 6.8385C16.2476 4.66796 18.4513 2.9467 20.8768 1.77326C23.3023 0.599815 25.9019 -0.00277575 28.5268 -2.11159e-05ZM38.7767 43.4075C37.9394 43.9943 37.0656 44.5069 36.1627 44.941C32.8426 46.5486 29.2129 47.0782 25.6567 46.4739C22.1006 45.8696 18.7499 44.1538 15.9585 41.5077C16.5203 41.4092 17.0701 41.2336 17.5967 40.9844C17.9028 40.8442 18.2016 40.6834 18.4918 40.5029C20.9322 42.4603 23.7508 43.6766 26.6936 44.042C29.6363 44.4075 32.6106 43.9107 35.3481 42.5963C35.9255 42.3137 36.494 41.9945 37.04 41.649C37.1743 41.8113 37.3131 41.9683 37.4518 42.1253C37.8732 42.5985 38.3219 43.0374 38.7946 43.4389L38.7767 43.4075ZM38.6514 14.696C38.5565 14.678 38.4598 14.678 38.3649 14.696C38.2686 14.7122 38.175 14.7457 38.0874 14.7954L37.9621 14.9105C39.0845 15.9502 40.1026 17.1353 40.9967 18.4432C41.8965 19.6808 42.7292 20.983 43.4898 22.3423C43.1182 22.181 42.7386 22.0464 42.3529 21.9393C41.8024 21.0286 41.1176 19.9976 40.4104 19.0189C39.1885 17.3232 37.9442 15.8212 37.3444 15.4862L31.5749 20.835C31.4778 20.9119 31.3953 21.0117 31.3329 21.1279C31.2705 21.2442 31.2295 21.3743 31.2124 21.5101C31.2235 21.8463 31.3361 22.1671 31.5302 22.4155L33.983 25.9063C33.8434 26.1908 33.7179 26.4844 33.607 26.7856C32.7118 25.5086 31.8166 24.2264 30.9215 22.9546C30.6223 22.5354 30.4632 22.0036 30.4739 21.4578C30.4931 21.1983 30.5598 20.9468 30.6694 20.7201C30.7791 20.4934 30.9291 20.297 31.1094 20.1441L37.6398 14.0627L37.7159 14.0051C37.8856 13.9082 38.0666 13.8412 38.253 13.8062C38.438 13.7671 38.6275 13.7671 38.8125 13.8062C39.4082 14.0644 39.9466 14.4757 40.388 15.01C41.1299 15.7934 41.8211 16.6401 42.4559 17.543L42.5454 17.6739C43.3913 18.9038 45.0698 21.3374 44.8236 23.0331L44.5461 22.8656C44.3984 22.7819 44.2462 22.6981 44.0985 22.6196C44.0985 21.3112 42.6886 19.2858 41.9635 18.2339L41.874 18.103C41.2631 17.2478 40.6004 16.445 39.8912 15.7008C39.5395 15.2789 39.1175 14.9458 38.6514 14.7221V14.696ZM40.388 20.6937C40.322 20.6029 40.228 20.5465 40.1265 20.5367C40.0249 20.5269 39.9242 20.5645 39.8464 20.6413C39.8076 20.6787 39.7756 20.7247 39.7523 20.7767C39.729 20.8288 39.7148 20.8858 39.7106 20.9443C39.7065 21.0028 39.7124 21.0618 39.728 21.1176C39.7436 21.1734 39.7687 21.225 39.8017 21.2694C39.8318 21.3216 39.8711 21.3659 39.9168 21.3993C39.9626 21.4327 40.0138 21.4545 40.0673 21.4633C40.1207 21.472 40.1751 21.4676 40.2269 21.4501C40.2788 21.4327 40.3269 21.4028 40.3682 21.3622C40.4095 21.3217 40.4431 21.2714 40.4667 21.2147C40.4904 21.158 40.5035 21.0961 40.5054 21.0331C40.5073 20.9701 40.4978 20.9073 40.4776 20.8488C40.4573 20.7903 40.4268 20.7375 40.388 20.6937ZM39.4167 19.3643C39.4819 19.456 39.5134 19.5742 39.5041 19.6929C39.4949 19.8116 39.4458 19.9212 39.3675 19.9976C39.3291 20.0352 39.2846 20.0635 39.2368 20.081C39.1889 20.0985 39.1386 20.1047 39.0887 20.0993C39.0388 20.094 38.9903 20.0772 38.946 20.0498C38.9016 20.0225 38.8624 19.9852 38.8304 19.94C38.7647 19.849 38.7325 19.7313 38.7409 19.6126C38.7493 19.4939 38.7976 19.3839 38.8751 19.3068C38.954 19.2318 39.0548 19.1959 39.156 19.2067C39.2571 19.2175 39.3507 19.274 39.4167 19.3643ZM38.3559 18.0978C38.3889 18.1421 38.414 18.1937 38.4296 18.2496C38.4452 18.3054 38.4511 18.3643 38.447 18.4229C38.4428 18.4814 38.4286 18.5384 38.4053 18.5904C38.382 18.6425 38.35 18.6885 38.3112 18.7258C38.2737 18.7712 38.2285 18.8069 38.1785 18.8305C38.1285 18.8542 38.0748 18.8653 38.0209 18.8631C37.967 18.8609 37.9141 18.8455 37.8656 18.8179C37.8171 18.7903 37.7741 18.751 37.7394 18.7027C37.7047 18.6544 37.6791 18.5981 37.6642 18.5375C37.6493 18.4769 37.6455 18.4133 37.653 18.3508C37.6605 18.2883 37.6791 18.2284 37.7077 18.1749C37.7363 18.1214 37.7741 18.0755 37.8188 18.0402C37.8573 18.0026 37.9017 17.9743 37.9495 17.9568C37.9974 17.9394 38.0477 17.9331 38.0976 17.9385C38.1475 17.9438 38.196 17.9607 38.2404 17.988C38.2847 18.0154 38.324 18.0527 38.3559 18.0978ZM37.1474 16.9778C37.2132 17.0688 37.2453 17.1866 37.237 17.3053C37.2286 17.424 37.1803 17.5339 37.1027 17.6111C37.0446 17.6688 36.9733 17.7051 36.8976 17.7153C36.8219 17.7255 36.7453 17.7093 36.6775 17.6686C36.6098 17.6279 36.5538 17.5646 36.5168 17.4867C36.4798 17.4089 36.4634 17.3199 36.4697 17.2311C36.476 17.1423 36.5047 17.0577 36.5521 16.988C36.5995 16.9183 36.6636 16.8666 36.7361 16.8395C36.8087 16.8123 36.8865 16.811 36.9598 16.8356C37.033 16.8603 37.0983 16.9097 37.1474 16.9778ZM34.1217 13.2044C34.0614 13.1552 33.9898 13.128 33.9162 13.1264C33.8426 13.1248 33.7703 13.1488 33.7084 13.1953C33.6465 13.2418 33.5978 13.3088 33.5685 13.3878C33.5392 13.4667 33.5306 13.5541 33.5438 13.6387C33.557 13.7234 33.5915 13.8016 33.6427 13.8633C33.694 13.9251 33.7598 13.9676 33.8318 13.9856C33.9038 14.0035 33.9787 13.996 34.0471 13.9641C34.1154 13.9322 34.1741 13.8772 34.2157 13.8062C34.2711 13.7117 34.2923 13.5954 34.2747 13.4827C34.2571 13.3699 34.2021 13.2699 34.1217 13.2044ZM35.2676 14.2511C35.1855 14.1866 35.0849 14.1625 34.9877 14.184C34.8906 14.2056 34.8045 14.271 34.7484 14.3662C34.7081 14.4396 34.6866 14.525 34.6866 14.6122C34.6866 14.6994 34.7081 14.7848 34.7484 14.8582C34.9543 14.696 35.1646 14.5389 35.375 14.3819C35.3464 14.3309 35.31 14.2865 35.2676 14.2511ZM32.9177 12.2152C32.9981 12.2808 33.0531 12.3808 33.0707 12.4935C33.0883 12.6063 33.0671 12.7226 33.0117 12.8171C32.9536 12.9034 32.8696 12.9608 32.7767 12.9776C32.6838 12.9944 32.589 12.9694 32.5112 12.9077C32.4335 12.846 32.3786 12.7521 32.3577 12.645C32.3368 12.5378 32.3514 12.4254 32.3985 12.3304C32.4547 12.2352 32.5407 12.1697 32.6379 12.1481C32.7351 12.1266 32.8356 12.1507 32.9177 12.2152ZM31.651 11.3517C31.7323 11.4169 31.7882 11.5173 31.8062 11.6306C31.8243 11.744 31.8031 11.8611 31.7473 11.9562C31.6915 12.0512 31.6057 12.1165 31.5087 12.1376C31.4118 12.1587 31.3116 12.1339 31.2303 12.0687C31.1489 12.003 31.0929 11.9024 31.0745 11.7888C31.056 11.6751 31.0766 11.5576 31.1318 11.4616C31.1596 11.4143 31.1951 11.3739 31.2363 11.3428C31.2775 11.3116 31.3236 11.2903 31.3718 11.2801C31.4201 11.2699 31.4696 11.271 31.5176 11.2833C31.5655 11.2955 31.6108 11.3188 31.651 11.3517ZM30.2769 10.6713C30.3576 10.7378 30.4127 10.8388 30.4303 10.9523C30.4479 11.0659 30.4266 11.183 30.3709 11.2784C30.3149 11.3724 30.2293 11.4367 30.1329 11.4573C30.0365 11.4779 29.937 11.4531 29.8562 11.3883C29.8155 11.3567 29.7807 11.316 29.7537 11.2685C29.7267 11.2209 29.7081 11.1676 29.6989 11.1116C29.6897 11.0555 29.6902 10.9979 29.7003 10.9421C29.7104 10.8863 29.7299 10.8333 29.7577 10.7864C29.8139 10.6912 29.8999 10.6258 29.9971 10.6042C30.0943 10.5827 30.1948 10.6068 30.2769 10.6713Z" fill="#A40000"/>
</g>
</svg>
