<svg width="55" height="55" viewBox="0 0 55 55" fill="none" xmlns="http://www.w3.org/2000/svg">
<g id="noto:hindu-temple">
<path id="Vector" d="M28.7332 9.83986C28.7332 9.83986 29.4937 9.3715 29.5023 8.33595C29.5109 7.20158 28.6043 6.86212 28.6043 6.86212C28.6043 6.86212 29.1672 6.63009 29.1758 5.9297C29.1844 5.18204 28.209 4.99728 28.209 4.99728C28.209 4.99728 28.6902 4.4172 28.6558 3.44611C28.6215 2.44494 27.8222 1.30197 27.5515 1.27619C27.4183 1.26329 27.457 5.14337 27.457 5.14337L27.2679 9.65079L28.6 11.2363L28.7332 9.83986Z" fill="#FFA72B"/>
<path id="Vector_2" d="M26.3441 9.784C26.3441 9.784 25.459 9.24689 25.5191 8.25861C25.5922 7.08126 26.6621 6.83204 26.6621 6.83204C26.6621 6.83204 25.8843 6.57853 25.9316 5.91251C25.9961 5.05743 26.98 4.95861 26.98 4.95861C26.98 4.95861 26.5074 4.45157 26.5675 3.49767C26.6621 1.9422 27.5515 1.27618 27.5515 1.27618L27.5859 10.1965L26.3441 9.784Z" fill="#FFC020"/>
<path id="Vector_3" d="M21.8883 12.2633C21.8883 12.2633 23.0485 9.234 27.4528 9.25548C32.3254 9.28127 33.116 12.4094 33.116 12.4094L25.8801 13.7543L21.8883 12.2633Z" fill="#8C1B0D"/>
<path id="Vector_4" d="M22.2235 14.3086L22.202 16.2551L27.7578 16.7836L32.8067 16.6332L32.8238 14.3687L22.2235 14.3086Z" fill="#513630"/>
<path id="Vector_5" d="M20.4574 13.4836C20.4531 14.3902 21.1621 14.7598 22.0258 14.7812C22.8937 14.807 32.5488 14.691 33.4555 14.6738C34.3621 14.6566 34.4996 13.8703 34.5082 13.3633C34.5168 12.6887 34.0613 12.1902 33.3652 12.1601C32.6691 12.1344 22.2492 12.1988 21.6992 12.2117C21.1492 12.2203 20.4574 12.6586 20.4574 13.4836Z" fill="#D35113"/>
<path id="Vector_6" d="M10.6906 50.0199L10.7766 41.5937L11.8121 41.4176L11.7691 36.9617L12.9336 36.85V33.0344L13.7715 32.3426L13.7371 29.1414L14.5363 28.8492L14.5707 25.5019L17.0457 25.2828L16.4269 50.8621L10.6906 50.0199ZM38.4398 26.1551L40.223 26.3742L40.1844 29.0684L40.9879 29.6484L40.9492 33.0687L41.7141 33.6144V37.0734L42.5519 37.8727L42.5863 41.4391L43.4242 42.1652L43.3855 50.3894L37.7051 50.5355L38.4398 26.1551Z" fill="#A62714"/>
<path id="Vector_7" d="M38.616 26.8168L40.266 26.8598C40.266 26.8598 41.2715 26.3871 41.2371 25.3559C41.177 23.6672 39.1531 22.7992 39.1531 22.7992C39.1531 22.7992 39.6258 22.6359 39.5871 21.8711C39.5527 21.2738 39.1145 21.0031 38.6375 20.9859C38.1649 20.9645 37.7524 21.377 37.7524 21.7895C37.7524 22.202 38.616 26.8168 38.616 26.8168ZM17.1531 22.941L16.8567 22.4598C16.8567 22.4598 17.1231 22.2836 17.1231 21.5918C17.1231 21.2395 16.8395 20.7582 16.2207 20.7582C15.602 20.7582 15.2797 21.2094 15.2797 21.6863C15.2797 22.202 15.7094 22.5457 15.7094 22.5457C15.7094 22.5457 13.5524 23.5254 13.5867 25.0594C13.6082 26.009 14.4719 26.1508 14.4719 26.1508L16.7406 26.2109L17.1531 22.941ZM16.1778 28.2047C16.1778 28.2047 13.8059 28.1359 13.5996 28.1574C13.3934 28.1789 13.0153 28.4926 13.0324 28.9352C13.0539 29.3777 13.3375 29.6098 13.7071 29.6356C14.0766 29.6613 16.2637 29.7043 16.2637 29.7043L16.1778 28.2047ZM15.9071 31.8828L12.6414 31.7668C12.6414 31.7668 11.9969 31.8098 11.984 32.5531C11.9711 33.3008 12.7059 33.2922 12.7059 33.2922L16.066 33.4125L15.9071 31.8828ZM15.834 36.141C15.834 36.141 11.6274 36.0207 11.2149 36.0207C10.8024 36.0207 10.5746 36.3301 10.5746 36.7598C10.5746 37.1895 10.841 37.4988 11.2965 37.5203C11.752 37.5461 15.8125 37.6406 15.8125 37.6406L15.834 36.141ZM15.8942 40.9965C15.8942 40.9965 10.5746 40.8805 10.3254 40.8805C10.0762 40.8805 9.70666 41.0695 9.66369 41.6109C9.62072 42.1523 9.89143 42.3887 10.3641 42.4145C10.6778 42.4316 16.1563 42.5777 16.1563 42.5777L15.8942 40.9965ZM38.7578 28.7547C38.7578 28.7547 40.6012 28.7762 41.0223 28.8191C41.4434 28.8621 41.7399 29.1672 41.7399 29.4981C41.7399 29.8289 41.4649 30.2887 40.9664 30.2887C40.468 30.2887 38.1863 30.3316 38.1863 30.2672C38.1863 30.2027 38.7578 28.7547 38.7578 28.7547ZM38.6848 32.3684C38.6848 32.3684 41.4133 32.4414 41.8559 32.4672C42.4145 32.5016 42.6508 32.8281 42.6508 33.1977C42.6508 33.5672 42.3285 33.9582 41.8129 33.9367C41.293 33.9152 37.9371 33.8981 37.9371 33.8981L38.6848 32.3684ZM38.6547 36.5578C38.6547 36.5578 42.2684 36.5664 42.4961 36.5836C42.7281 36.6008 43.5317 36.7039 43.5274 37.3441C43.5231 37.9586 42.9516 38.1133 42.5477 38.1133C42.1438 38.1133 38.4055 38.0961 38.4055 38.0961L38.6547 36.5578ZM38.5902 41.1856C38.5902 41.1856 43.5145 41.1856 43.957 41.2113C44.5328 41.2457 44.7176 41.6066 44.709 41.9332C44.7004 42.2125 44.593 42.6035 43.884 42.625C43.175 42.6422 38.2078 42.625 38.2078 42.625L38.5902 41.1856Z" fill="#503730"/>
<path id="Vector_8" d="M22.0688 16.1777C22.1504 16.1734 32.6735 16.2207 32.6735 16.2207C32.6735 16.2207 35.0024 16.9813 37.4344 21.0031C39.4797 24.3891 39.1446 28.7203 39.1446 33.7262C39.1446 38.732 38.9512 49.8395 38.9512 49.8395L27.4184 51.5367L15.6063 49.9641C15.6063 49.9641 15.5504 38.7707 15.5504 33.5672C15.5504 28.3637 16.3625 23.1129 18.0899 20.4145C20.0492 17.3422 22.0688 16.1777 22.0688 16.1777Z" fill="#D55113"/>
<path id="Vector_9" d="M33.3781 17.2391H33.3695L31.1437 17.2047C30.8344 17.2004 30.5852 16.9426 30.5894 16.6332C30.5937 16.3238 30.843 16.0789 31.1523 16.0789H31.1609L33.3867 16.1133C33.536 16.1144 33.6787 16.1748 33.7835 16.2812C33.8882 16.3876 33.9464 16.5312 33.9453 16.6805C33.9442 16.8298 33.8838 16.9725 33.7774 17.0772C33.671 17.182 33.5274 17.2402 33.3781 17.2391ZM24.243 17.0457H21.8883C21.5789 17.0457 21.3254 16.7922 21.3254 16.4828C21.3254 16.1734 21.5789 15.9199 21.8883 15.9199H24.243C24.5523 15.9199 24.8059 16.1734 24.8059 16.4828C24.8059 16.7922 24.5566 17.0457 24.243 17.0457ZM21.3082 20.0449H21.2996L19.0094 20.0148C18.7 20.0105 18.4508 19.7527 18.4551 19.4434C18.4594 19.134 18.7258 18.8805 19.0266 18.8891L20.8012 18.9148L20.8484 18.4293C20.8785 18.1371 21.1062 17.9137 21.4199 17.9223L24.7457 17.9867C25.0551 17.991 25.3043 18.2488 25.2957 18.5625C25.2914 18.8719 25.0465 19.1254 24.7199 19.1125L21.9141 19.0566L21.8668 19.5379C21.841 19.8258 21.5961 20.0449 21.3082 20.0449ZM36.3172 20.1094H36.3086L33.7434 20.0793C33.6041 20.0778 33.4703 20.0246 33.3679 19.9302C33.2655 19.8357 33.2018 19.7067 33.1891 19.568L33.1547 19.1684L30.3016 19.1125C29.9922 19.1082 29.743 18.8504 29.7516 18.5367C29.7559 18.2273 30.0094 17.9652 30.3273 17.9867L33.6832 18.0512C33.9711 18.0555 34.2074 18.2789 34.2332 18.5625L34.2676 18.9578L36.3258 18.9836C36.4751 18.9847 36.6178 19.0451 36.7225 19.1515C36.8273 19.2579 36.8855 19.4015 36.8844 19.5508C36.8832 19.7001 36.8228 19.8428 36.7165 19.9475C36.6101 20.0523 36.4665 20.1105 36.3172 20.1094Z" fill="#FA8960"/>
<path id="Vector_10" d="M29.9277 18.3563H29.9234L25.2398 18.3047C24.9305 18.3004 24.6812 18.0469 24.6812 17.7332C24.6855 17.4238 24.9391 17.1703 25.2527 17.1746L29.932 17.2262C30.2414 17.2305 30.4906 17.484 30.4906 17.7977C30.4863 18.107 30.2371 18.3563 29.9277 18.3563ZM19.727 23.2418H19.7098L17.3551 23.1773C17.0457 23.1688 16.8008 22.9109 16.8094 22.5973C16.818 22.2879 17.0715 22.0473 17.3895 22.0516L19.1855 22.0988L19.1984 21.6563C19.207 21.3469 19.4648 21.1063 19.7785 21.1106L23.2332 21.2094C23.5426 21.218 23.7875 21.4758 23.7789 21.7895C23.7703 22.0988 23.5082 22.3395 23.1988 22.3352L20.307 22.2535L20.2941 22.6918C20.2886 22.8389 20.2266 22.9781 20.1209 23.0806C20.0152 23.1831 19.8741 23.2408 19.727 23.2418ZM18.5969 26.8555H18.5797L16.1605 26.791C15.8512 26.7824 15.6062 26.5246 15.6148 26.2109C15.6234 25.9016 15.8898 25.6652 16.1949 25.6652L18.0598 25.7168L18.0727 25.4031C18.0855 25.0938 18.3262 24.8574 18.6527 24.8617L22.043 24.9605C22.3523 24.9691 22.5973 25.227 22.5887 25.5406C22.5801 25.85 22.3223 26.0906 22.0086 26.0863L19.177 26.0047L19.1641 26.3184C19.1469 26.6191 18.8977 26.8555 18.5969 26.8555ZM17.9824 30.6969H15.7867C15.4773 30.6969 15.2238 30.4434 15.2238 30.134C15.2238 29.8246 15.4773 29.5711 15.7867 29.5711H17.4195V29.1027C17.4195 28.7934 17.673 28.5398 17.9824 28.5398H21.5316C21.841 28.5398 22.0945 28.7934 22.0945 29.1027C22.0945 29.4121 21.841 29.6656 21.5316 29.6656H18.5453V30.134C18.5453 30.4434 18.2961 30.6969 17.9824 30.6969ZM18.0168 34.5383H18.0125L15.5762 34.5125C15.2668 34.5082 15.0176 34.2547 15.0176 33.9453C15.0219 33.6316 15.2711 33.3867 15.5891 33.3867L17.4539 33.4082V32.9785C17.4539 32.8281 17.5141 32.682 17.6215 32.5789C17.7289 32.4715 17.8707 32.4242 18.0254 32.4156L23.1258 32.4801C23.4352 32.4844 23.6844 32.7379 23.6801 33.0516C23.6758 33.3609 23.4266 33.6059 23.1172 33.6059H23.1086L18.5797 33.55V33.9797C18.5797 34.1301 18.5195 34.2762 18.4121 34.3793C18.3047 34.4781 18.1629 34.5383 18.0168 34.5383ZM35.6426 23.4609C35.3332 23.4609 35.084 23.2117 35.0797 22.9066L35.0754 22.4555L31.9473 22.4125C31.6379 22.4082 31.3887 22.1547 31.393 21.841C31.3973 21.5316 31.6465 21.2867 31.9559 21.2867H31.9645L35.6426 21.3383C35.9477 21.3426 36.1926 21.5875 36.1969 21.8926L36.2012 22.3352L37.9973 22.3223H38.0016C38.3109 22.3223 38.5602 22.5715 38.5645 22.8809C38.5688 23.1902 38.3152 23.4438 38.0059 23.448L35.6469 23.4652C35.6469 23.4609 35.6469 23.4609 35.6426 23.4609ZM38.7664 27.0531H38.7578L36.3387 27.023C36.1909 27.0208 36.0499 26.9605 35.9462 26.8552C35.8425 26.7499 35.7844 26.608 35.7844 26.4602V26.1465L32.9527 26.1164C32.6434 26.1121 32.3941 25.8586 32.3941 25.5492C32.3984 25.2398 32.6477 24.9906 32.957 24.9906H32.9613L36.3516 25.0293C36.6609 25.0336 36.9102 25.2828 36.9102 25.5922V25.9059L38.775 25.9316C39.0844 25.9359 39.3336 26.1895 39.3293 26.5031C39.325 26.8039 39.0758 27.0531 38.7664 27.0531ZM38.8652 30.8945H38.848L36.6523 30.8301C36.343 30.8215 36.098 30.5637 36.1066 30.25L36.1195 29.7816L33.1332 29.6957C32.8238 29.6871 32.5789 29.4293 32.5875 29.1156C32.5961 28.8105 32.8453 28.5699 33.1504 28.5699H33.1676L36.7168 28.6731C37.0262 28.6816 37.2711 28.9395 37.2625 29.2531L37.2496 29.7215L38.8824 29.7688C39.1918 29.7773 39.4367 30.0352 39.4281 30.3488C39.4195 30.6539 39.1703 30.8945 38.8652 30.8945ZM39.0672 34.8004H39.05L36.6609 34.7359C36.3516 34.7273 36.1109 34.4738 36.1152 34.1645L36.1195 33.7348L31.5906 33.7262C31.2812 33.7262 31.0277 33.4727 31.0277 33.1633C31.0277 32.8539 31.2812 32.6004 31.5906 32.6004L36.691 32.609C36.8414 32.609 36.9875 32.6691 37.0906 32.7766C37.198 32.884 37.2539 33.0301 37.2539 33.1805L37.2496 33.6273L39.0801 33.6789C39.3895 33.6875 39.6344 33.9453 39.6258 34.259C39.6215 34.5598 39.3723 34.8004 39.0672 34.8004Z" fill="#FA8960"/>
<path id="Vector_11" d="M31.6035 21.5316H31.5906L23.5898 21.3683C23.2805 21.3641 23.0313 21.1062 23.0398 20.7926C23.0441 20.4832 23.3063 20.2211 23.6156 20.2426L31.6207 20.4058C31.9301 20.4101 32.1793 20.668 32.1707 20.9816C32.1621 21.2867 31.9086 21.5316 31.6035 21.5316ZM33.0215 29.0512H33.0129L21.652 28.8578C21.5027 28.8567 21.3599 28.7963 21.2552 28.6899C21.1504 28.5835 21.0922 28.4399 21.0934 28.2906C21.0945 28.1413 21.1549 27.9986 21.2613 27.8938C21.3676 27.7891 21.5113 27.7309 21.6606 27.732H21.6691L33.0301 27.9254C33.3395 27.9297 33.5887 28.1875 33.5844 28.4969C33.5801 28.8062 33.3309 29.0512 33.0215 29.0512ZM38.8652 44.7391H38.8566L15.6664 44.4426C15.357 44.4383 15.1078 44.1848 15.1121 43.8711C15.1164 43.5617 15.3613 43.2953 15.6836 43.3168L38.8738 43.6133C39.1832 43.6176 39.4324 43.8711 39.4281 44.1848C39.4281 44.4941 39.1746 44.7391 38.8652 44.7391ZM38.702 49.573L15.3055 49.4226C14.9961 49.4226 14.7426 49.1691 14.7469 48.8555C14.7469 48.5461 15.0004 48.2969 15.3098 48.2969H15.3141L38.7063 48.4473C39.0156 48.4473 39.2691 48.7008 39.2648 49.0144C39.2648 49.3238 39.0113 49.573 38.702 49.573Z" fill="#FA8960"/>
<path id="Vector_12" d="M26.3055 25.6695C26.2367 25.7727 19.7957 38.1777 19.7957 38.1777L19.5465 50.3852L34.8176 50.5828L35.0797 39.325L28.7762 25.6695H26.3055Z" fill="#EE6D33"/>
<path id="Vector_13" d="M25.2441 27.1047C25.1195 27.1391 23.8133 29.2531 23.9207 29.4336C23.9722 29.5238 25.6094 29.5453 27.3711 29.5453C29.1887 29.5453 30.9031 29.6012 30.9332 29.5453C30.989 29.4336 29.9234 27.2336 29.8117 27.1777C29.7043 27.1262 25.373 27.0703 25.2441 27.1047ZM23.1515 30.6281C22.9883 30.7184 21.1148 33.9496 21.2265 34.0957C21.3254 34.2289 24.1871 34.2031 27.1004 34.2418C30.1469 34.2848 33.2449 34.3879 33.3051 34.332C33.4168 34.2203 31.6894 30.8473 31.5047 30.7527C31.4144 30.7098 29.4379 30.6754 27.4484 30.641C25.3515 30.6152 23.2375 30.5852 23.1515 30.6281Z" fill="#FDBBA0"/>
<path id="Vector_14" d="M19.2973 39.166L19.134 49.9683L20.1781 49.9168L20.3371 38.6848L19.2973 39.166ZM34.4308 39.4625V50.2348L35.5781 49.9426V39.1918L34.4308 39.4625Z" fill="#8B200D"/>
<path id="Vector_15" d="M20.4746 35.5867C20.2039 35.7586 18.382 39.2004 18.5109 39.368C18.5754 39.4496 22.8379 39.4668 27.1734 39.5141C31.6551 39.5656 36.2097 39.643 36.257 39.5871C36.3472 39.4754 34.1816 35.9004 34.0355 35.8058C33.8894 35.7113 20.6207 35.4922 20.4746 35.5867Z" fill="#FDBBA0"/>
<path id="Vector_16" d="M6.76759 49.3754C6.37227 49.5731 6.3336 53.118 6.52266 53.4317C6.71173 53.7453 47.0852 53.7024 47.3945 53.5777C47.7039 53.4531 47.5149 49.8352 47.3301 49.586C47.2828 49.5215 37.0305 49.5559 26.8211 49.5086C16.818 49.457 6.86212 49.3281 6.76759 49.3754Z" fill="#EE6D33"/>
<path id="Vector_17" d="M22.7821 41.7785C22.7219 41.8817 22.6188 49.8738 22.6188 49.8738L31.7883 49.8695C31.7883 49.8695 31.9559 42.075 31.9 41.9418C31.8442 41.8043 22.8637 41.641 22.7821 41.7785Z" fill="#51362F"/>
<path id="Vector_18" d="M22.2707 49.7879C22.2449 50.0543 22.2707 51.4508 22.2707 51.4508C22.2707 51.4508 21.7594 51.425 21.7336 51.498C21.6734 51.6613 21.7293 52.9375 21.7293 52.9375L32.4328 53.4359C32.4328 53.4359 32.4801 51.6828 32.3898 51.6098C32.3254 51.5582 31.9644 51.5668 31.9644 51.5668C31.9644 51.5668 32.0375 49.848 31.9043 49.848C31.5391 49.8523 29.309 49.8566 26.9113 49.818C24.5266 49.7879 22.275 49.7449 22.2707 49.7879Z" fill="#FA8960"/>
<path id="Vector_19" d="M21.7422 53.6594L32.4328 53.7195L32.4457 52.641L21.7121 52.5594L21.7422 53.6594ZM22.2492 50.643L31.9902 50.7332L31.9687 51.5711L22.2664 51.4551L22.2492 50.643Z" fill="#D05314"/>
<path id="Vector_20" d="M32.841 25.2742H32.8281L21.957 25.068C21.6476 25.0637 21.3984 24.8059 21.407 24.4922C21.4113 24.1828 21.6734 23.9207 21.9828 23.9422L32.8539 24.1484C33.1633 24.1527 33.4125 24.4105 33.4082 24.7242C33.4027 24.8713 33.3406 25.0106 33.2349 25.113C33.1293 25.2155 32.9882 25.2732 32.841 25.2742Z" fill="#FA8960"/>
<path id="Vector_21" d="M25.7125 25.0723C25.7125 25.0723 26.1937 23.9336 27.5258 23.9164C28.9566 23.8992 29.5281 25.141 29.5281 25.141C29.5281 25.141 30.1812 25.3086 30.2887 25.7812C30.3574 26.0906 30.1984 26.3312 29.6184 26.327C29.2144 26.3227 28.6172 26.3227 27.5602 26.3012C26.6105 26.2797 25.9273 26.2711 25.5234 26.2625C25.0207 26.2539 24.7414 26.0434 24.8359 25.648C24.9562 25.1109 25.7125 25.0723 25.7125 25.0723Z" fill="#FDBBA0"/>
<path id="Vector_22" d="M27.5945 22.2621C26.9715 22.2621 26.7308 22.709 26.7308 23.1945C26.7308 23.6801 27.0574 24.0582 27.6461 24.0582C28.2347 24.0582 28.4926 23.6457 28.5097 23.143C28.5183 22.7606 28.1101 22.2621 27.5945 22.2621Z" fill="#FDBBA0"/>
</g>
</svg>
