<svg width="50" height="50" viewBox="0 0 50 50" fill="none" xmlns="http://www.w3.org/2000/svg">
<g id="cdnlogo.com_aws-mobile-hub 2" clip-path="url(#clip0_39_861)">
<path id="Vector" d="M33.2845 5.63747L42.422 10.4193V13.9914L44.6944 15.1134V25.683L42.422 26.8052V30.6146L46.2094 32.4848L49.9969 30.5455V26.8052L46.2094 24.935V15.8614L49.9969 13.9221V10.251L46.2094 8.31176L43.7578 9.52229L33.3323 4.0664V1.93943L29.9236 -3.05176e-05L26.515 1.87015V5.67961L29.9236 7.54979L33.2845 5.63747Z" fill="#A40000"/>
<path id="Vector_2" d="M4.55055 15.4875V25.3089L7.58044 26.8053V30.6146L3.79303 32.4848L0.00561523 30.5455V26.8052L2.27799 25.683V15.0857L0.00561523 13.9221V10.251L3.79303 8.31176L6.35169 9.57497L15.1553 4.96801V1.93943L18.9427 -3.05176e-05L22.7301 1.87015V5.67961L18.9427 7.54997L16.0764 6.08211L7.58044 10.5284V13.9916L4.55055 15.4875Z" fill="#A40000"/>
<path id="Vector_3" d="M28.4843 44.6902L37.6244 40.0227L40.6799 41.6277L44.24 39.8268L44.3157 36.0173L40.7556 34.078L37.1198 35.948V38.6936L27.435 43.6393L24.9242 42.3204L21.6656 44.0321L12.8908 39.29L12.956 35.948L9.39588 34.0779L5.76001 35.948V39.7575L9.32011 41.6277L11.8608 40.3425L21.3641 45.4782V48L24.9242 49.8702L28.4843 48V44.6902Z" fill="#A40000"/>
<path id="Vector_4" d="M11.4412 16.2771V30.6839L24.9243 37.7489L38.1802 30.8918L38.4075 16.4848L25 9.28125L11.4412 16.2771Z" fill="#A40000"/>
<path id="Vector_5" d="M24.8484 33.1775L15.683 28.3289L15.7588 18.5629L25 13.7836L34.0897 18.7014L33.9383 28.4675L24.8484 33.1775ZM16.5919 27.8441L24.8486 32.2079L32.9535 27.9827L33.105 19.1862L24.9244 14.8225L16.6676 19.0475L16.5919 27.8441Z" fill="white"/>
</g>
<defs>
<clipPath id="clip0_39_861">
<rect width="50" height="50" fill="white"/>
</clipPath>
</defs>
</svg>
