<svg width="60" height="60" viewBox="0 0 60 60" fill="none" xmlns="http://www.w3.org/2000/svg">
<g id="ambulance 1">
<g id="Group">
<g id="Group_2">
<g id="Group_3">
<path id="Vector" d="M56.5936 27.6817C56.4295 26.3602 55.2576 25.3299 53.8514 25.3299H45.2498C44.1483 25.3299 43.2576 26.181 43.2576 27.2338V41.3449C42.6483 41.1881 41.992 41.0761 41.2889 41.0761C40.9842 41.0761 40.4217 41.1209 40.4217 41.1209V25.1059C40.4217 24.2771 39.7186 23.5828 38.8279 23.5828H37.1639V20.1782L36.8592 20.1334C36.333 20.0429 35.8045 19.9738 35.2747 19.9259C33.4445 19.7606 31.5987 19.8481 29.7811 20.1782V23.5828H14.3592C9.22637 23.5828 5.0545 27.5921 5.0545 32.4974V43.4952C4.07013 43.4952 3.29669 44.2567 3.29669 45.1751V46.8102C3.29669 47.6613 4.02325 48.3557 4.91388 48.3557H6.32013V48.3781C6.71857 51.6259 9.69513 54.1793 13.2811 54.1793C16.867 54.1793 19.8436 51.6483 20.242 48.3781V48.3557H34.3045V48.3781C34.7029 51.6259 37.6795 54.1793 41.2654 54.1793C44.8514 54.1793 47.8279 51.6483 48.2264 48.3781V48.3557H55.3983C56.4061 48.3557 57.2498 47.5717 57.2498 46.5862C57.6248 46.5862 57.9998 46.4294 58.2576 46.1606C58.5154 45.8918 58.6326 45.5335 58.5858 45.1527L56.5936 27.6817ZM17.3826 32.8558H20.5701V29.7424H24.2498V32.8558H27.5076V36.3724H24.2733V39.4186H20.5701V36.3724H17.3826V32.8558ZM13.2811 50.3716C11.617 50.3716 10.2576 49.1396 10.2576 47.6389C10.2576 46.1382 11.617 44.9063 13.2811 44.9063C14.9451 44.9063 16.3045 46.1382 16.3045 47.6389C16.3045 49.1396 14.9451 50.3716 13.2811 50.3716ZM45.8592 29.8992C45.8592 28.8465 46.7498 27.9953 47.8514 27.9953H52.1639C53.1248 27.9953 53.9217 28.6897 54.0154 29.608L54.8826 38.2315C54.9295 38.7691 54.742 39.3066 54.367 39.7098C53.992 40.113 53.4529 40.337 52.8904 40.337H47.8514C46.7498 40.337 45.8592 39.4858 45.8592 38.4331V29.8992ZM41.2889 50.3716C39.6248 50.3716 38.2654 49.1396 38.2654 47.6389C38.2654 46.1382 39.6248 44.9063 41.2889 44.9063C42.9529 44.9063 44.3123 46.1382 44.3123 47.6389C44.3123 49.1396 42.9529 50.3716 41.2889 50.3716Z" fill="#A40000"/>
<path id="Vector_2" d="M22.4452 21.0741H27.953C28.5155 21.0741 28.9608 20.6262 28.9608 20.0886C28.9608 19.551 28.5155 19.1031 27.953 19.1031H22.4452C21.8827 19.1031 21.4374 19.551 21.4374 20.0886C21.4374 20.6262 21.9061 21.0741 22.4452 21.0741Z" fill="#A40000"/>
<path id="Vector_3" d="M33.4842 17.6248C34.0233 17.6248 34.4686 17.1992 34.4686 16.6616V11.3979C34.4686 10.8604 34.0233 10.4348 33.4842 10.4348C32.9217 10.4348 32.4998 10.8604 32.4998 11.3979V16.6616C32.4764 17.1992 32.9217 17.6248 33.4842 17.6248Z" fill="#A40000"/>
<path id="Vector_4" d="M37.2576 18.5655C37.5154 18.5655 37.7733 18.4759 37.9608 18.2743L41.8514 14.5561C42.2498 14.1754 42.2498 13.5706 41.8514 13.2122C41.4529 12.8314 40.8201 12.8314 40.4451 13.2122L36.5545 16.9304C36.1561 17.3112 36.1561 17.9159 36.5545 18.2743C36.742 18.4759 36.9998 18.5655 37.2576 18.5655Z" fill="#A40000"/>
<path id="Vector_5" d="M29.2186 18.2743C29.4061 18.4535 29.6639 18.5655 29.9217 18.5655C30.1795 18.5655 30.4373 18.4759 30.6248 18.2743C31.0233 17.8935 31.0233 17.2888 30.6248 16.9304L26.7342 13.2122C26.3358 12.8314 25.7029 12.8314 25.3279 13.2122C24.9295 13.593 24.9295 14.1978 25.3279 14.5561L29.2186 18.2743Z" fill="#A40000"/>
<path id="Vector_6" d="M38.2186 20.111C38.2186 20.6486 38.6639 21.0965 39.2264 21.0965H44.7342C45.2967 21.0965 45.742 20.6486 45.742 20.111C45.742 19.5734 45.2967 19.1255 44.7342 19.1255H39.2264C38.6639 19.1255 38.2186 19.5734 38.2186 20.111Z" fill="#A40000"/>
</g>
</g>
</g>
</g>
</svg>
