<svg width="55" height="55" viewBox="0 0 55 55" fill="none" xmlns="http://www.w3.org/2000/svg">
<g id="location_icon 1">
<g id="layer1">
<g id="g3846">
<path id="rect3797" d="M50.8346 44.2791L51.5478 47.4138H9.46674L10.18 44.671L50.8346 44.2791Z" fill="white"/>
<path id="rect3799" d="M10.8932 34.4833H13.7462L11.1737 47.4201H7.60754L10.8932 34.4833Z" fill="white"/>
</g>
<path id="path4043" d="M25.2273 0.406799C18.1317 0.406799 12.4025 6.70825 12.4025 14.4806C12.4025 16.9246 12.9709 19.224 13.9672 21.2275L25.2278 41.9406L36.4885 21.2275C37.4848 19.224 38.0532 16.9246 38.0532 14.4806C38.0532 6.70794 32.3239 0.406799 25.2284 0.406799H25.2273ZM25.0846 8.58592C25.1322 8.58459 25.1794 8.58592 25.2273 8.58592C28.2924 8.58592 30.3205 11.3161 30.3205 14.6839C30.3205 18.0517 28.2924 20.7817 25.2273 20.7817C22.1621 20.7817 19.6774 18.0516 19.6774 14.6839C19.6774 11.3687 22.0857 8.66946 25.0846 8.58592Z" fill="#A40000"/>
</g>
</g>
</svg>
