<svg width="55" height="50" viewBox="0 0 55 50" fill="none" xmlns="http://www.w3.org/2000/svg">
<g id="business-trip-icon 1" clip-path="url(#clip0_51_316)">
<path id="Vector" fill-rule="evenodd" clip-rule="evenodd" d="M3.91195 9.07047H5.97982V44.1529H3.91195C2.87557 44.1515 1.88192 43.6587 1.14867 42.7826C0.415421 41.9064 0.00236819 40.7183 0 39.4785L0 13.7449C0.00354531 12.5056 0.416976 11.3182 1.14997 10.4424C1.88296 9.56651 2.87593 9.07329 3.91195 9.07047ZM33.2739 47.4138C33.0367 46.3429 33.3142 45.1274 33.8782 43.6657L28.2743 41.6042C27.9342 41.5399 27.8939 41.3204 28.0103 41.0045L28.7935 39.623C28.8636 39.5258 28.9501 39.4474 29.0473 39.3929C29.1445 39.3385 29.2502 39.3092 29.3575 39.3071L35.5387 38.6111L39.0389 30.6436L25.4456 25.0375C25.1099 24.925 25.0338 24.7055 25.2755 24.336L26.578 22.1943L42.6912 22.4299L45.8557 15.3405C46.9971 13.3273 48.2861 12.1761 49.4678 12.1279C49.7173 12.0766 49.974 12.1223 50.2003 12.2581C50.4266 12.394 50.6107 12.6129 50.7255 12.8828C51.3924 14.1144 51.2313 16.0955 50.3048 18.3926L46.7509 25.2142L54.9866 41.813L54.0914 44.2225C53.9482 44.6509 53.7512 44.683 53.5006 44.3939L42.6331 33.1495L38.6047 40.7528L41.1918 47.5102C41.2447 47.6215 41.2769 47.7451 41.2862 47.8726C41.2954 48.0001 41.2816 48.1286 41.2455 48.2491L40.686 49.7591C40.516 50.0375 40.3324 50.1071 40.1221 49.7591L35.8073 45.0257C35.0464 46.3322 34.3034 47.221 33.4037 47.5102C33.3232 47.5102 33.2963 47.5102 33.2739 47.4138ZM18.2841 0H26.0632C27.2294 0.00282979 28.3471 0.558278 29.1718 1.54475C29.9964 2.53123 30.4607 3.86836 30.4631 5.26344V8.07453H27.6611V5.25273C27.66 4.76323 27.4969 4.29419 27.2075 3.94806C26.9182 3.60193 26.5261 3.40685 26.1169 3.40544H18.2304C17.8212 3.40685 17.4291 3.60193 17.1398 3.94806C16.8504 4.29419 16.6874 4.76323 16.6862 5.25273V8.07453H13.8753V5.26344C13.8777 3.8665 14.3432 2.52775 15.1698 1.54097C15.9963 0.554194 17.1164 -2.87961e-06 18.2841 0ZM8.29834 9.07047H35.8431V16.8933L26.8913 16.7595C26.1169 16.6903 25.3405 16.8585 24.6357 17.2483C23.9308 17.638 23.3206 18.2365 22.863 18.9869L21.6455 20.952C21.1051 21.6988 20.7381 22.6022 20.581 23.5719C20.4239 24.5416 20.4823 25.5436 20.7503 26.4778C20.9899 27.4168 21.4322 28.2636 22.0325 28.9329C22.6329 29.6022 23.3701 30.0704 24.1699 30.2902L32.0072 33.535L28.9815 33.8777C28.3057 33.9305 27.6454 34.1435 27.039 34.5042C26.4544 34.8439 25.9265 35.3084 25.4814 35.8749C25.3167 36.0806 25.1669 36.3027 25.0338 36.5389L24.4116 37.6098C24.1729 37.9721 23.9743 38.3699 23.8208 38.7931C23.3291 40.0352 23.229 41.448 23.5388 42.7715C23.5993 43.0577 23.6801 43.3371 23.7805 43.6068C23.8521 43.7942 23.9282 43.9816 24.0088 44.1422H8.29834V9.07047ZM38.1661 9.07047H40.7532C41.7404 9.06571 42.6924 9.50973 43.4163 10.3127C42.9736 10.8867 42.5667 11.4987 42.1989 12.1439C42.0721 12.3523 41.957 12.5706 41.8542 12.7972L40.0012 16.9522L38.184 16.9255V9.07047H38.1661Z" fill="#A40000"/>
</g>
<defs>
<clipPath id="clip0_51_316">
<rect width="55" height="50" fill="white"/>
</clipPath>
</defs>
</svg>
