<!--?xml version="1.0" encoding="utf-8"?-->
<!-- Svg Vector Icons : http://www.onlinewebfonts.com/icon -->

<svg version="1.1" xmlns="http://www.w3.org/2000/svg" xmlns:xlink="http://www.w3.org/1999/xlink" x="0px" y="0px" viewBox="0 0 256 256" enable-background="new 0 0 256 256" xml:space="preserve">
<metadata> Svg Vector Icons : http://www.onlinewebfonts.com/icon </metadata>
<g><g><g><path fill="#aa6039" data-title="Layer 0" xs="0" d="M106.8,54.2c-3.3,1.5-5.3,4.4-5.7,8.1c-0.2,2.8-0.4,3-2.5,3.4c-4.1,0.7-8.1,3.4-10.9,7.3c-1.5,2-2.9,4.5-3.1,5.4c-0.3,1.6-0.6,1.7-3.5,1.7c-14,0-32,8.7-46,22.1C24.8,112,18.5,121.4,16.1,131c-1.6,6.3-1.6,10.6,0.1,11.7c1.7,1,1.7,5,0,6.6c-1.1,1-1.2,1.9-1.2,10.3v9.1h-2.5H10v6.2c0,5.3,0.2,6.6,1.4,8.6c1.8,3.2,5.2,4.9,10.1,4.9h3.6V181c0-6.8,0.1-7.4,2-11.4c2.7-5.7,7.3-10.4,13-13.2c4.5-2.2,4.7-2.3,11.7-2.3c7,0,7.3,0.1,11.7,2.3c5.7,2.8,10.3,7.5,13,13.2c1.8,4,2,4.5,2,11.4v7.3H128h49.5V181c0-6.8,0.1-7.4,2-11.4c2.7-5.7,7.3-10.4,13-13.2c4.5-2.2,4.7-2.3,11.7-2.3c6.8,0,7.4,0.1,11.3,2c5.7,2.7,10.4,7.3,13.2,13c2.2,4.5,2.3,4.7,2.3,11.9v7.3h2.2c5.8,0,10.9-3.6,12.2-8.4c0.5-1.8,0.7-15.7,0.6-47.2l-0.2-44.5l-1.8-2.6c-1-1.5-2.8-3.2-4-3.9c-2.1-1.2-3.1-1.2-47.1-1.4l-44.9-0.1l-0.7-2.6c-1.8-6-6.6-10.3-13.1-11.7c-3.4-0.7-3.6-0.9-3.6-2.6c0-2.9-2.3-6.9-4.8-8.5c-2-1.2-3.3-1.4-9.3-1.6C110.5,53,108.9,53.2,106.8,54.2z M123.8,59.7c1.2,1.2,1.8,2.5,1.8,3.7v1.9h-9.8h-9.8v-2.2c0-1.5,0.5-2.7,1.5-3.7c1.4-1.4,1.9-1.5,8-1.5C121.8,58,122,58,123.8,59.7z M88.1,91.9c0,4.4-2.5,28.9-3.1,31.4c-1.5,5.8-4.3,8.4-10.5,10c-3.9,1-47.5,5.5-48.8,5c-2.2-0.9,0.2-9.2,4.9-16.4c4.1-6.3,14.6-16.6,22.1-21.6C63.9,92.9,72,90,82.1,90l6-0.1L88.1,91.9L88.1,91.9z M170.5,109.6v19.7h-27.9c-29.3,0-30.2-0.1-34-2.9c-3.6-2.6-4.9-5.8-8.5-21.3c-1.8-8-3.4-14.7-3.4-14.8c0-0.2,16.6-0.3,36.9-0.3h36.9V109.6L170.5,109.6z M236.1,109.7l0.1,19.6h-30.6H175l-0.4-7.5c-0.2-4.1-0.4-12.9-0.4-19.7V89.9l30.9,0.1l30.9,0.2L236.1,109.7z M133,144v4.9h4.9h4.9v4.9v4.9h-4.9H133v4.9v4.9H128h-4.9v-4.9v-4.9h-4.9h-4.9v-4.9V149h4.9h4.9V144v-4.9h4.9h4.9V144z"/><path fill="#898948" data-title="Layer 1" xs="1" d="M46.7,159.4c-6.5,1.7-12.1,6.4-15,12.6c-1.4,3.1-1.7,4.5-1.7,8.9c0,6.3,1.7,10.6,6.1,15.2c4.2,4.5,9.1,6.5,15.7,6.5c6.3,0.1,10.6-1.7,15.2-6c4.5-4.2,6.5-9.1,6.5-15.7c0.1-6.3-1.7-10.6-6-15.2C62.6,160.4,53.6,157.7,46.7,159.4z M59.6,164.8c6.1,3.1,9.5,8.1,9.9,14.8c0.4,5.8-1.3,10.1-5.7,14.1c-6.9,6.4-16.4,6.6-23.2,0.6c-7.8-6.9-8.5-18-1.7-25.3c4.5-4.8,7.6-6.1,14-5.8C55.6,163.5,57.9,164,59.6,164.8z"/><path fill="#3db751" data-title="Layer 2" xs="2" d="M48.1,167.6c-10.8,3-13.8,17-5.2,24.2c10.7,8.8,26.6-2,22.2-15.1C62.7,169.6,55.2,165.6,48.1,167.6z"/><path fill="#79aa4c" data-title="Layer 3" xs="3" d="M198.1,160c-6.9,2.2-11.6,6.7-14.1,13.5c-1.8,4.9-1.5,11.9,0.8,16.8c4.4,9.3,14.8,14.4,24.8,12c10.4-2.6,16.9-10.8,16.9-21.3c0-10.3-6.4-18.6-16.3-21.2C205.4,158.5,202.4,158.6,198.1,160z M210.6,164.1c1.6,0.6,4.2,2.2,5.9,3.7c9.3,8.4,7.3,23.4-3.9,28.8c-9,4.4-19,1.2-23.5-7.6c-1.7-3.3-2-4.5-2-8.3c0-3.5,0.3-5.1,1.6-7.6C192.6,165.1,202.1,161.2,210.6,164.1z"/><path fill="#799081" data-title="Layer 4" xs="4" d="M201,167.6c-3.7,1-5.7,2.5-8.1,5.8c-3.5,5-2.7,13,1.7,17.5c8.9,8.8,23.7,2.7,23.8-9.8C218.4,171.7,210,165.2,201,167.6z"/></g></g></g>
</svg>